<?xml version="1.0" encoding="UTF-8" standalone="no"?>
<!DOCTYPE svg PUBLIC "-//W3C//DTD SVG 1.1//EN" "http://www.w3.org/Graphics/SVG/1.1/DTD/svg11.dtd">
<svg width="100%" height="100%" viewBox="0 0 73 50" version="1.1" xmlns="http://www.w3.org/2000/svg" xmlns:xlink="http://www.w3.org/1999/xlink" xml:space="preserve" xmlns:serif="http://www.serif.com/" style="fill-rule:evenodd;clip-rule:evenodd;stroke-linejoin:round;stroke-miterlimit:1.41421;">
    <rect x="0" y="0" width="73" height="50" style="fill-opacity:0;"/>
    <g transform="matrix(0.0866249,0,0,0.0866249,-91.2655,12.3297)">
        <g>
            <g transform="matrix(1.82293,0,0,1.82293,445.279,-342.978)">
                <g>
                    <path d="M432.382,300.047L390.262,385.836C389.601,387.16 388.619,388.225 387.316,389.031C386.013,389.837 384.576,390.241 383.005,390.241C381.475,390.241 380.058,389.837 378.756,389.031C377.453,388.225 376.45,387.16 375.747,385.836L333.69,300.047L351.741,300.047L383.005,364.125L414.393,300.047L432.382,300.047Z" style="fill:rgb(0,24,45);fill-rule:nonzero;"/>
                    <path d="M530.391,329.946C530.391,333.627 529.936,336.914 529.027,339.809C528.117,342.704 526.887,345.258 525.336,347.47C523.785,349.682 521.996,351.574 519.97,353.146C517.944,354.717 515.824,356.01 513.612,357.023C511.399,358.036 509.166,358.77 506.912,359.225C504.659,359.68 502.539,359.907 500.554,359.907L534.237,390.241L509.301,390.241L475.68,359.907L475.68,343.779L500.554,343.779C502.581,343.614 504.431,343.19 506.106,342.507C507.781,341.825 509.228,340.905 510.448,339.747C511.668,338.589 512.609,337.193 513.271,335.56C513.932,333.926 514.263,332.055 514.263,329.946L514.263,319.773C514.263,318.863 514.149,318.171 513.922,317.695C513.695,317.219 513.405,316.868 513.054,316.64C512.702,316.413 512.33,316.279 511.937,316.237C511.544,316.196 511.182,316.175 510.851,316.175L457.628,316.175L457.628,390.241L441.5,390.241L441.5,308.173C441.5,307.057 441.707,306.002 442.121,305.01C442.534,304.017 443.103,303.149 443.827,302.404C444.55,301.66 445.408,301.081 446.401,300.667C447.393,300.254 448.469,300.047 449.626,300.047L510.851,300.047C514.449,300.047 517.489,300.698 519.97,302.001C522.451,303.304 524.467,304.937 526.018,306.901C527.569,308.866 528.685,310.985 529.368,313.26C530.05,315.534 530.391,317.664 530.391,319.649L530.391,329.946Z" style="fill:rgb(0,24,45);fill-rule:nonzero;"/>
                </g>
                <g transform="matrix(0.903874,0,0,0.903874,23.7771,38.0598)">
                    <text x="606px" y="389px" style="font-family:'Comfortaa-Regular', 'Comfortaa';font-size:126.954px;fill:rgb(0,24,45);">Lab</text>
                </g>
            </g>
            <g transform="matrix(1.40871,0,0,1.40871,548.807,-303.514)">
                <g transform="matrix(1.04443,0,0,1.08448,2.61883,20.159)">
                    <path d="M799,138.5C792.593,124.167 777.128,111.503 761.5,110C734.636,107.417 692.352,117.69 637.814,118C602.85,118.199 540.469,107.417 513.5,110C497.871,111.497 482.168,124.062 476,138.5C468.417,156.25 463.083,202.25 468,221.5C472.375,238.628 487.917,257.173 505.5,259C533.577,261.917 592.304,238.669 636.464,239C680.964,239.333 743.577,263.583 772.5,261C790.108,259.427 806.111,240.745 810,223.5C814.417,203.917 807.083,156.583 799,138.5Z" style="fill:rgb(0,24,45);"/>
                    <clipPath id="_clip1">
                        <path d="M799,138.5C792.593,124.167 777.128,111.503 761.5,110C734.636,107.417 692.352,117.69 637.814,118C602.85,118.199 540.469,107.417 513.5,110C497.871,111.497 482.168,124.062 476,138.5C468.417,156.25 463.083,202.25 468,221.5C472.375,238.628 487.917,257.173 505.5,259C533.577,261.917 592.304,238.669 636.464,239C680.964,239.333 743.577,263.583 772.5,261C790.108,259.427 806.111,240.745 810,223.5C814.417,203.917 807.083,156.583 799,138.5Z"/>
                    </clipPath>
                    <g clip-path="url(#_clip1)">
                        <g transform="matrix(1.10947,0,0,1.06851,215.167,20.8975)">
                            <g opacity="0.1">
                                <g transform="matrix(1,0,0,1,0.980564,0)">
                                    <g transform="matrix(2.14141,0,0,2.14141,23.1359,82.2119)">
                                        <path d="M247.566,17.227C252.22,17.227 255.999,13.455 255.999,8.801C255.999,4.141 252.22,0.368 247.566,0.368C242.913,0.368 239.14,4.141 239.14,8.801C239.14,13.455 242.913,17.227 247.566,17.227Z" style="fill:rgb(45,49,147);fill-rule:nonzero;"/>
                                    </g>
                                    <g transform="matrix(2.14141,0,0,2.14141,23.1359,82.2119)">
                                        <path d="M247.566,24.045C242.781,24.045 238.898,27.928 238.898,32.714C238.898,37.499 242.781,41.382 247.566,41.382C252.358,41.382 256.234,37.499 256.234,32.714C256.234,27.928 252.358,24.045 247.566,24.045Z" style="fill:rgb(45,49,147);fill-rule:nonzero;"/>
                                    </g>
                                    <g transform="matrix(2.14141,0,0,2.14141,23.1359,82.2119)">
                                        <path d="M247.566,48.303C242.975,48.303 239.244,52.028 239.244,56.625C239.244,61.223 242.975,64.947 247.566,64.947C252.164,64.947 255.888,61.223 255.888,56.625C255.888,52.028 252.164,48.303 247.566,48.303Z" style="fill:rgb(45,49,147);fill-rule:nonzero;"/>
                                    </g>
                                </g>
                                <g transform="matrix(1,0,0,1,1.21903,0)">
                                    <g transform="matrix(2.14141,0,0,2.14141,23.1359,82.2119)">
                                        <path d="M223.654,15.542C227.378,15.542 230.395,12.526 230.395,8.801C230.395,5.077 227.378,2.054 223.654,2.054C219.93,2.054 216.913,5.077 216.913,8.801C216.913,12.526 219.93,15.542 223.654,15.542Z" style="fill:rgb(45,49,147);fill-rule:nonzero;"/>
                                    </g>
                                    <g transform="matrix(2.14141,0,0,2.14141,23.1359,82.2119)">
                                        <path d="M223.654,39.697C227.51,39.697 230.638,36.569 230.638,32.714C230.638,28.858 227.51,25.73 223.654,25.73C219.798,25.73 216.671,28.858 216.671,32.714C216.671,36.569 219.798,39.697 223.654,39.697Z" style="fill:rgb(45,49,147);fill-rule:nonzero;"/>
                                    </g>
                                    <g transform="matrix(2.14141,0,0,2.14141,23.1359,82.2119)">
                                        <path d="M223.654,49.406C219.666,49.406 216.428,52.638 216.428,56.625C216.428,60.62 219.666,63.852 223.654,63.852C227.642,63.852 230.881,60.62 230.881,56.625C230.881,52.638 227.642,49.406 223.654,49.406Z" style="fill:rgb(45,49,147);fill-rule:nonzero;"/>
                                    </g>
                                </g>
                                <g transform="matrix(1,0,0,1,1.4671,0)">
                                    <g transform="matrix(2.14141,0,0,2.14141,23.1359,82.2119)">
                                        <path d="M199.742,13.857C202.53,13.857 204.798,11.59 204.798,8.801C204.798,6.007 202.53,3.739 199.742,3.739C196.947,3.739 194.687,6.007 194.687,8.801C194.687,11.59 196.947,13.857 199.742,13.857Z" style="fill:rgb(45,49,147);fill-rule:nonzero;"/>
                                    </g>
                                    <g transform="matrix(2.14141,0,0,2.14141,23.1359,82.2119)">
                                        <path d="M199.742,38.012C202.669,38.012 205.041,35.64 205.041,32.714C205.041,29.787 202.669,27.415 199.742,27.415C196.815,27.415 194.444,29.787 194.444,32.714C194.444,35.64 196.815,38.012 199.742,38.012Z" style="fill:rgb(45,49,147);fill-rule:nonzero;"/>
                                    </g>
                                    <g transform="matrix(2.14141,0,0,2.14141,23.1359,82.2119)">
                                        <path d="M199.742,51.091C196.684,51.091 194.201,53.567 194.201,56.625C194.201,59.684 196.684,62.166 199.742,62.166C202.801,62.166 205.276,59.684 205.276,56.625C205.276,53.567 202.801,51.091 199.742,51.091Z" style="fill:rgb(45,49,147);fill-rule:nonzero;"/>
                                    </g>
                                </g>
                                <g transform="matrix(1,0,0,1,0.726057,0)">
                                    <g transform="matrix(2.14141,0,0,2.14141,23.1359,82.2119)">
                                        <path d="M271.484,15.043C274.932,15.043 277.727,12.248 277.727,8.801C277.727,5.355 274.932,2.56 271.484,2.56C268.038,2.56 265.243,5.355 265.243,8.801C265.243,12.248 268.038,15.043 271.484,15.043Z" style="fill:rgb(45,49,147);fill-rule:nonzero;"/>
                                    </g>
                                    <g transform="matrix(2.14141,0,0,2.14141,23.1359,82.2119)">
                                        <path d="M271.484,39.301C275.119,39.301 278.073,36.354 278.073,32.714C278.073,29.072 275.119,26.125 271.484,26.125C267.844,26.125 264.897,29.072 264.897,32.714C264.897,36.354 267.844,39.301 271.484,39.301Z" style="fill:rgb(45,49,147);fill-rule:nonzero;"/>
                                    </g>
                                    <g transform="matrix(2.14141,0,0,2.14141,23.1359,82.2119)">
                                        <path d="M271.484,49.69C267.649,49.69 264.55,52.797 264.55,56.625C264.55,60.453 267.649,63.56 271.484,63.56C275.313,63.56 278.42,60.453 278.42,56.625C278.42,52.797 275.313,49.69 271.484,49.69Z" style="fill:rgb(45,49,147);fill-rule:nonzero;"/>
                                    </g>
                                </g>
                                <g transform="matrix(1,0,0,1,-1.21261,0)">
                                    <g transform="matrix(2.14141,0,0,2.14141,-332.166,-685.422)">
                                        <path d="M319.309,399.846C323.962,399.846 327.734,396.072 327.734,391.419C327.734,386.766 323.962,382.993 319.309,382.993C314.655,382.993 310.883,386.766 310.883,391.419C310.883,396.072 314.655,399.846 319.309,399.846Z" style="fill:rgb(45,49,147);fill-rule:nonzero;"/>
                                    </g>
                                    <g transform="matrix(2.14141,0,0,2.14141,-332.166,-685.422)">
                                        <path d="M319.309,406.662C314.523,406.662 310.64,410.546 310.64,415.331C310.64,420.123 314.523,424 319.309,424C324.094,424 327.978,420.123 327.978,415.331C327.978,410.546 324.094,406.662 319.309,406.662Z" style="fill:rgb(45,49,147);fill-rule:nonzero;"/>
                                    </g>
                                    <g transform="matrix(2.14141,0,0,2.14141,-332.166,-685.422)">
                                        <path d="M319.309,358.839C314.523,358.839 310.64,362.715 310.64,367.507C310.64,372.292 314.523,376.176 319.309,376.176C324.094,376.176 327.978,372.292 327.978,367.507C327.978,362.715 324.094,358.839 319.309,358.839Z" style="fill:rgb(45,49,147);fill-rule:nonzero;"/>
                                    </g>
                                </g>
                                <g transform="matrix(1,0,0,1,-0.973081,0)">
                                    <g transform="matrix(2.14141,0,0,2.14141,-332.166,-685.422)">
                                        <path d="M295.397,374.005C298.989,374.005 301.895,371.1 301.895,367.507C301.895,363.915 298.989,361.002 295.397,361.002C291.805,361.002 288.892,363.915 288.892,367.507C288.892,371.1 291.805,374.005 295.397,374.005Z" style="fill:rgb(45,49,147);fill-rule:nonzero;"/>
                                    </g>
                                    <g transform="matrix(2.14141,0,0,2.14141,-332.166,-685.422)">
                                        <path d="M295.397,398.16C299.121,398.16 302.138,395.144 302.138,391.419C302.138,387.696 299.121,384.679 295.397,384.679C291.673,384.679 288.656,387.696 288.656,391.419C288.656,395.144 291.673,398.16 295.397,398.16Z" style="fill:rgb(45,49,147);fill-rule:nonzero;"/>
                                    </g>
                                    <g transform="matrix(2.14141,0,0,2.14141,-332.166,-685.422)">
                                        <path d="M295.397,408.348C291.541,408.348 288.413,411.476 288.413,415.331C288.413,419.187 291.541,422.315 295.397,422.315C299.253,422.315 302.381,419.187 302.381,415.331C302.381,411.476 299.253,408.348 295.397,408.348Z" style="fill:rgb(45,49,147);fill-rule:nonzero;"/>
                                    </g>
                                </g>
                                <g transform="matrix(1,0,0,1,-0.726074,0)">
                                    <g transform="matrix(2.14141,0,0,2.14141,-332.166,-685.422)">
                                        <path d="M271.484,372.321C274.141,372.321 276.298,370.163 276.298,367.507C276.298,364.844 274.141,362.688 271.484,362.688C268.822,362.688 266.665,364.844 266.665,367.507C266.665,370.163 268.822,372.321 271.484,372.321Z" style="fill:rgb(45,49,147);fill-rule:nonzero;"/>
                                    </g>
                                    <g transform="matrix(2.14141,0,0,2.14141,-332.166,-685.422)">
                                        <path d="M271.484,396.475C274.273,396.475 276.54,394.214 276.54,391.419C276.54,388.624 274.273,386.363 271.484,386.363C268.69,386.363 266.422,388.624 266.422,391.419C266.422,394.214 268.69,396.475 271.484,396.475Z" style="fill:rgb(45,49,147);fill-rule:nonzero;"/>
                                    </g>
                                    <g transform="matrix(2.14141,0,0,2.14141,-332.166,-685.422)">
                                        <path d="M271.484,410.033C268.559,410.033 266.187,412.404 266.187,415.331C266.187,418.258 268.559,420.63 271.484,420.63C274.404,420.63 276.776,418.258 276.776,415.331C276.776,412.404 274.404,410.033 271.484,410.033Z" style="fill:rgb(45,49,147);fill-rule:nonzero;"/>
                                    </g>
                                </g>
                                <g>
                                    <g transform="matrix(2.14141,0,0,2.14141,-332.166,-685.422)">
                                        <path d="M199.742,358.839C194.95,358.839 191.073,362.715 191.073,367.507C191.073,372.292 194.95,376.176 199.742,376.176C204.527,376.176 208.411,372.292 208.411,367.507C208.411,362.715 204.527,358.839 199.742,358.839Z" style="fill:rgb(45,49,147);fill-rule:nonzero;"/>
                                    </g>
                                    <g transform="matrix(2.14141,0,0,2.14141,-332.166,-685.422)">
                                        <path d="M199.742,398.355C203.57,398.355 206.677,395.247 206.677,391.419C206.677,387.591 203.57,384.485 199.742,384.485C195.907,384.485 192.807,387.591 192.807,391.419C192.807,395.247 195.907,398.355 199.742,398.355Z" style="fill:rgb(45,49,147);fill-rule:nonzero;"/>
                                    </g>
                                    <g transform="matrix(2.14141,0,0,2.14141,-332.166,-685.422)">
                                        <path d="M199.742,408.05C195.72,408.05 192.461,411.309 192.461,415.331C192.461,419.354 195.72,422.613 199.742,422.613C203.765,422.613 207.024,419.354 207.024,415.331C207.024,411.309 203.765,408.05 199.742,408.05Z" style="fill:rgb(45,49,147);fill-rule:nonzero;"/>
                                    </g>
                                </g>
                                <g transform="matrix(1,0,0,1,-1.45105,0)">
                                    <g transform="matrix(2.14141,0,0,2.14141,-332.166,-685.422)">
                                        <path d="M343.221,374.789C347.243,374.789 350.502,371.529 350.502,367.507C350.502,363.486 347.243,360.226 343.221,360.226C339.205,360.226 335.939,363.486 335.939,367.507C335.939,371.529 339.205,374.789 343.221,374.789Z" style="fill:rgb(45,49,147);fill-rule:nonzero;"/>
                                    </g>
                                    <g transform="matrix(2.14141,0,0,2.14141,-332.166,-685.422)">
                                        <path d="M343.221,399.048C347.438,399.048 350.85,395.636 350.85,391.419C350.85,387.21 347.438,383.791 343.221,383.791C339.011,383.791 335.592,387.21 335.592,391.419C335.592,395.636 339.011,399.048 343.221,399.048Z" style="fill:rgb(45,49,147);fill-rule:nonzero;"/>
                                    </g>
                                    <g transform="matrix(2.14141,0,0,2.14141,-332.166,-685.422)">
                                        <path d="M343.221,407.356C338.817,407.356 335.245,410.928 335.245,415.331C335.245,419.735 338.817,423.307 343.221,423.307C347.631,423.307 351.196,419.735 351.196,415.331C351.196,410.928 347.631,407.356 343.221,407.356Z" style="fill:rgb(45,49,147);fill-rule:nonzero;"/>
                                    </g>
                                </g>
                                <g transform="matrix(1,0,0,1,-0.480128,0)">
                                    <g transform="matrix(2.14141,0,0,2.14141,-332.166,-685.422)">
                                        <path d="M247.566,371.321C249.674,371.321 251.38,369.615 251.38,367.507C251.38,365.4 249.674,363.694 247.566,363.694C245.465,363.694 243.752,365.4 243.752,367.507C243.752,369.615 245.465,371.321 247.566,371.321Z" style="fill:rgb(45,49,147);fill-rule:nonzero;"/>
                                    </g>
                                    <g transform="matrix(2.14141,0,0,2.14141,-332.166,-685.422)">
                                        <path d="M247.566,395.58C249.868,395.58 251.727,393.715 251.727,391.419C251.727,389.124 249.868,387.258 247.566,387.258C245.271,387.258 243.405,389.124 243.405,391.419C243.405,393.715 245.271,395.58 247.566,395.58Z" style="fill:rgb(45,49,147);fill-rule:nonzero;"/>
                                    </g>
                                    <g transform="matrix(2.14141,0,0,2.14141,-332.166,-685.422)">
                                        <path d="M247.566,410.823C245.076,410.823 243.059,412.842 243.059,415.331C243.059,417.821 245.076,419.839 247.566,419.839C250.056,419.839 252.074,417.821 252.074,415.331C252.074,412.842 250.056,410.823 247.566,410.823Z" style="fill:rgb(45,49,147);fill-rule:nonzero;"/>
                                    </g>
                                </g>
                                <g transform="matrix(1,0,0,1,-0.240587,0)">
                                    <g transform="matrix(2.14141,0,0,2.14141,-332.166,-685.422)">
                                        <path d="M223.654,372.709C226.525,372.709 228.856,370.378 228.856,367.507C228.856,364.636 226.525,362.306 223.654,362.306C220.783,362.306 218.453,364.636 218.453,367.507C218.453,370.378 220.783,372.709 223.654,372.709Z" style="fill:rgb(45,49,147);fill-rule:nonzero;"/>
                                    </g>
                                    <g transform="matrix(2.14141,0,0,2.14141,-332.166,-685.422)">
                                        <path d="M223.654,396.967C226.72,396.967 229.202,394.485 229.202,391.419C229.202,388.354 226.72,385.871 223.654,385.871C220.589,385.871 218.107,388.354 218.107,391.419C218.107,394.485 220.589,396.967 223.654,396.967Z" style="fill:rgb(45,49,147);fill-rule:nonzero;"/>
                                    </g>
                                    <g transform="matrix(2.14141,0,0,2.14141,-332.166,-685.422)">
                                        <path d="M223.654,409.437C220.401,409.437 217.76,412.078 217.76,415.331C217.76,418.591 220.401,421.226 223.654,421.226C226.906,421.226 229.549,418.591 229.549,415.331C229.549,412.078 226.906,409.437 223.654,409.437Z" style="fill:rgb(45,49,147);fill-rule:nonzero;"/>
                                    </g>
                                </g>
                            </g>
                        </g>
                    </g>
                </g>
                <g transform="matrix(1,0,0,1,-1.37064,-1)">
                    <g transform="matrix(1.3259,0,0,1.3259,-195.572,-82.9215)">
                        <circle cx="584" cy="223" r="33" style="fill:rgb(0,241,255);fill-opacity:0.8;"/>
                    </g>
                    <g transform="matrix(1.3259,0,0,1.3259,-10.3408,-82.9215)">
                        <circle cx="584" cy="223" r="33" style="fill:rgb(255,0,225);fill-opacity:0.8;"/>
                    </g>
                    <g transform="matrix(1.17439,0,0,1.17439,-107.088,-49.1337)">
                        <circle cx="584" cy="223" r="33" style="fill:rgb(0,241,255);"/>
                    </g>
                    <g transform="matrix(1.17439,0,0,1.17439,78.1441,-49.1337)">
                        <circle cx="584" cy="223" r="33" style="fill:rgb(255,0,225);"/>
                    </g>
                </g>
            </g>
        </g>
    </g>
</svg>
